# xmcd CD database file
#
# Track frame offsets:
#	187
#	38395
#	87587
#	103115
#	141350
#	185552
#	219920
#	252847
#	289840
#
# Disc length: 4250 seconds
#
# Revision: 0
# Processed by: cddbd v1.5.2PL0 Copyright (c) Steve Scherf et al.
# Submitted via: CDex 1.70beta2
#
DISCID=80109809
DTITLE=Bill Charlap and Sean Smith - Bill Charlap and Sean Smith
DYEAR=1993
DGENRE=Jazz
TTITLE0=Tears
TTITLE1=A Smitty Ditty
TTITLE2=When Your Lover Has Gone
TTITLE3=The Escape Artist
TTITLE4=Ballad For A Late Spring
TTITLE5=Donna Lee
TTITLE6=Darin That Dream
TTITLE7=February 8th
TTITLE8=Thank You, Red
EXTD=YEAR: 1993
EXTT0=
EXTT1=
EXTT2=
EXTT3=
EXTT4=
EXTT5=
EXTT6=
EXTT7=
EXTT8=
PLAYORDER=
